<svg width="18" height="18" viewBox="0 0 18 18" fill="none" xmlns="http://www.w3.org/2000/svg">
<path fill-rule="evenodd" clip-rule="evenodd" d="M5.96571 8.40857H15.0171L12.4971 5.91429L13.3457 5.06571L17.28 9.02571L13.3714 12.9086L12.5229 12.0857L15.0429 9.59143H5.96571V8.40857ZM8.58857 0V1.15714H1.49143C1.40571 1.15714 1.32857 1.19143 1.26 1.26C1.19143 1.32857 1.15714 1.40571 1.15714 1.49143V16.5086C1.15714 16.5943 1.19143 16.6714 1.26 16.74C1.32857 16.8086 1.40571 16.8429 1.49143 16.8429H8.58857V18H1.49143C1.08 18 0.728571 17.8543 0.437143 17.5629C0.145714 17.2714 0 16.92 0 16.5086V1.49143C0 1.08 0.145714 0.728571 0.437143 0.437143C0.728571 0.145714 1.08 0 1.49143 0H8.58857Z" fill="white" fill-opacity="0.87"/>
</svg>
