<svg width="18" height="14" viewBox="0 0 18 14" fill="none" xmlns="http://www.w3.org/2000/svg">
<path fill-rule="evenodd" clip-rule="evenodd" d="M18 0V1.03846H10.8692V0H18ZM18 5.23846V6.3H11.2846V5.23846H18ZM18 10.5V11.5385H11.2846V10.5H18ZM8.83846 0V1.03846H5.7C4.40769 1.03846 3.30769 1.5 2.4 2.42308C1.49231 3.34615 1.03846 4.46154 1.03846 5.76923C1.03846 7.10769 1.52692 8.23077 2.50385 9.13846C3.48077 10.0462 4.64615 10.5 6 10.5H6.46154L4.8 8.81538L5.53846 8.07692L8.42308 11.0077L5.49231 13.9385L4.75385 13.2L6.39231 11.5385H5.93077C4.3 11.5538 2.90385 11.0038 1.74231 9.88846C0.580769 8.77308 0 7.4 0 5.76923C0 4.18462 0.553846 2.82692 1.66154 1.69615C2.76923 0.565385 4.11538 0 5.7 0H8.83846Z" fill="white" fill-opacity="0.87"/>
</svg>
